<svg xmlns="http://www.w3.org/2000/svg" viewBox="0 0 512 512" role="img" aria-label="EPUB Reader icon">
  <defs>
    <linearGradient id="paper" x1="0" y1="0" x2="1" y2="1">
      <stop offset="0" stop-color="#fffaf1" />
      <stop offset="1" stop-color="#eadfce" />
    </linearGradient>
    <linearGradient id="cover" x1="0" y1="0" x2="1" y2="1">
      <stop offset="0" stop-color="#8f3f35" />
      <stop offset="1" stop-color="#4b2d33" />
    </linearGradient>
    <linearGradient id="pages" x1="0" y1="0" x2="1" y2="0">
      <stop offset="0" stop-color="#f8efe0" />
      <stop offset="1" stop-color="#fffaf4" />
    </linearGradient>
    <filter id="shadow" x="-20%" y="-20%" width="140%" height="140%">
      <feDropShadow dx="0" dy="18" stdDeviation="18" flood-color="#4b382d" flood-opacity="0.22" />
    </filter>
  </defs>
  <rect width="512" height="512" rx="112" fill="url(#paper)" />
  <g filter="url(#shadow)">
    <path d="M150 105h196c22 0 40 18 40 40v255c0 8-7 15-15 15H162c-27 0-49-22-49-49V142c0-20 17-37 37-37Z" fill="url(#cover)" />
    <path d="M164 128h184c9 0 16 7 16 16v229c0 9-7 16-16 16H164c-14 0-26-12-26-26V154c0-14 12-26 26-26Z" fill="url(#pages)" />
    <path d="M138 155c0-15 12-27 27-27h31v261h-34c-13 0-24-11-24-24V155Z" fill="#6f3433" />
    <path d="M207 155h118" stroke="#d1bd9f" stroke-width="12" stroke-linecap="round" />
    <path d="M207 197h94" stroke="#d1bd9f" stroke-width="12" stroke-linecap="round" />
    <path d="M207 239h118" stroke="#d1bd9f" stroke-width="12" stroke-linecap="round" />
    <path d="M207 281h76" stroke="#d1bd9f" stroke-width="12" stroke-linecap="round" />
    <path d="M174 128v261" stroke="#4b2d33" stroke-width="10" stroke-linecap="round" opacity="0.45" />
  </g>
</svg>
